PathFileType	4	(X/Y/Z)	C:/Users/beibeiliu/ov580/test_trc\sequence.29_training_dense_right.trc
DataRate	CameraRate	NumFrames	NumMarkers	Units	OrigDataRate	OrigDataStartFrame	OrigNumFrames
120	120	12	19	mm	120	347	396
Frame#	Time	ThumbCMC			ThumbMCP			ThumbIP			ThumbTip			IndexMCP			IndexPIP			IndexTip			MiddleMCP			MiddlePIP			MiddleTip			RingMCP			RingPIP			RingTip			PinkyMCP			PinkyPIP			PinkyTip			BackHand1			BackHand2			BackHand3	
		X0	Y0	Z0	X1	Y1	Z1	X2	Y2	Z2	X3	Y3	Z3	X4	Y4	Z4	X5	Y5	Z5	X6	Y6	Z6	X7	Y7	Z7	X8	Y8	Z8	X9	Y9	Z9	X10	Y10	Z10	X11	Y11	Z11	X12	Y12	Z12	X13	Y13	Z13	X14	Y14	Z14	X15	Y15	Z15	X16	Y16	Z16	X17	Y17	Z17	X18	Y18	Z18	
346	2.88333	170.188	-67.5403	54.4208	196.877	-75.1354	37.0594	210.681	-62.1576	15.7354	213.52	-40.0827	8.57789	175.77	-73.7398	-10.2157	183.455	-80.0931	-31.3039	187.111	-90.4631	-47.9033	174.584	-49.9452	-20.3977	177.005	-52.8498	-39.3765	175.974	-54.7195	-61.1882	175.092	-28.9904	-11.6994	177.562	-29.5721	-34.6431	177.361	-28.0645	-50.0886	179.122	-14.4168	3.02681	179.819	-7.96103	-15.6964	175.302	-5.88152	-28.7131	157.083	-24.2055	24.8262	143.896	-22.3706	48.5581	150.216	-49.0295	35.4947	
347	2.89167	169.794	-72.0159	56.2361	198.156	-76.8065	36.5439	208.954	-61.0672	16.7227	217.495	-41.8875	6.16653	174.55	-72.1973	-8.41217	181.496	-85.9413	-30.3359	186.473	-89.818	-45.9679	172.748	-51.4713	-19.4137	176.176	-54.7222	-41.7719	174.632	-51.3583	-62.6872	174.308	-30.6424	-12.7357	175.296	-31.1673	-30.9777	174.01	-29.3958	-53.0507	176.672	-12.6439	3.57397	177.611	-5.36975	-15.9523	172.207	-3.36537	-25.7995	157.026	-28.8433	26.6115	145.515	-24.4699	45.1049	145.764	-50.8284	36.6951	
348	2.9	169.364	-70.947	53.89	198.633	-76.9619	35.8363	207.883	-60.8565	15.7244	214.54	-42.7279	7.98042	173.185	-74.7203	-11.2464	180.338	-79.5049	-28.4638	184.786	-90.2244	-48.3068	171.371	-48.6532	-17.2141	175.14	-53.8703	-41.669	173.503	-51.5039	-61.9866	171.329	-32.8995	-13.4044	174.079	-28.7902	-34.0066	172.71	-32.3872	-54.1936	174.312	-12.9998	0.172984	175.864	-8.70844	-11.0252	168.902	-2.61753	-29.0695	155.996	-31.4236	24.011	143.328	-28.5176	47.374	146.88	-52.8718	35.8544	
349	2.90833	168.373	-70.2926	55.9309	199.018	-74.7245	34.9801	210.273	-62.6369	18.5299	218.185	-41.9033	4.52003	172.281	-75.5853	-8.8665	179.957	-81.6545	-32.0996	184.904	-87.1482	-51.0414	170.383	-52.7617	-18.9029	174.355	-51.9833	-39.6214	172.316	-51.6173	-63.5936	171.659	-32.131	-10.7664	174.31	-32.1746	-30.6861	173.283	-28.7673	-52.9543	174.214	-14.8307	2.36076	175.42	-8.96264	-11.7925	168.697	-3.0026	-26.2443	155.105	-31.6489	23.762	143.377	-24.4717	46.5594	146.283	-55.7475	37.1066	
350	2.91667	170.216	-71.9165	53.5143	197.819	-73.5613	34.9241	209.166	-60.9925	17.2194	218.203	-40.8572	2.89637	171.824	-78.5745	-8.20761	178.181	-84.955	-27.1226	182.93	-88.5787	-49.5358	169.888	-52.8543	-18.7918	172.892	-55.1373	-39.4816	171.641	-49.4587	-62.9709	171.167	-34.063	-10.8421	172.441	-29.6448	-35.2982	173.072	-33.3532	-53.5163	174.237	-13.9233	-0.902647	175.887	-5.63576	-11.9721	167.534	-2.41895	-28.2078	153.658	-29.2936	24.3928	141.397	-23.7767	48.8984	144.285	-52.8207	36.5685	
351	2.925	169.14	-70.5953	53.3955	196.179	-74.0075	35.462	210.703	-64.9864	15.4425	212.46	-39.6463	4.71608	169.233	-73.567	-9.17775	176.512	-80.8864	-34.1046	179.981	-87.42	-49.6758	167.969	-50.2621	-16.5787	171.314	-53.9881	-38.3422	170.333	-51.4914	-62.3057	170.968	-32.0471	-11.5196	172.929	-29.5872	-34.6914	173.625	-26.1804	-50.7698	175.751	-13.9967	2.41721	177.779	-6.69103	-15.0689	169.897	1.32401	-29.6839	156.25	-31.2365	23.8089	141.437	-25.2191	48.8811	145.667	-52.5219	33.8978	
352	2.93333	165.822	-72.3701	48.5487	192.661	-77.7497	31.1438	205.48	-64.6764	9.59692	213.197	-46.6522	3.2889	163.161	-71.3867	-11.5395	168.284	-74.1363	-33.1563	171.65	-78.9893	-53.9758	166.947	-46.9957	-22.565	168.667	-49.6019	-41.7053	165.878	-47.7583	-66.8819	171.871	-27.2126	-10.773	173.382	-25.5642	-31.1156	171.219	-24.5566	-54.2626	178.941	-10.2173	3.83009	180.844	-5.00881	-13.593	175.591	2.6984	-28.8128	156.987	-22.1542	26.9707	147.164	-20.0325	51.2468	144.602	-50.9855	33.7426	
353	2.94167	159.832	-68.6929	48.5478	182.831	-75.2004	20.5002	196.503	-62.7248	3.75124	209.547	-44.4535	-4.55367	156.609	-57.0086	-16.1	157.796	-64.5345	-37.3508	161.367	-63.8369	-60.3848	163.544	-36.1114	-21.0231	165.164	-33.2772	-41.2528	163.04	-29.1959	-66.8876	171.873	-17.5619	-13.185	172.201	-16.3791	-36.1554	172.322	-13.0936	-51.3177	183.58	-4.22185	4.1002	185.363	-0.848054	-10.4409	182.604	10.2148	-26.6813	159.497	-17.3779	29.5498	150.038	-16.7252	48.0592	143.712	-38.3193	38.1164	
354	2.95	151.7	-62.5276	43.4699	170.18	-73.3694	17.2431	184.927	-62.3283	-0.908539	202.248	-48.3633	-11.4355	147.197	-45.0204	-20.918	149.709	-46.8194	-42.5824	148.212	-47.0464	-60.8529	159.214	-23.9627	-25.1671	161.504	-19.845	-42.8826	157.582	-12.7847	-69.0865	173.477	-11.3859	-10.705	175.56	-3.39054	-33.3992	173.14	1.81473	-52.5879	189.17	0.676952	1.98584	193.457	7.48157	-8.15277	193.172	18.0687	-22.9603	166.53	-9.39952	29.8774	156.899	-11.4696	51.0815	144.444	-26.6583	38.3967	
355	2.95833	144.037	-50.7205	43.5723	156.79	-62.0091	9.32523	170.812	-57.3234	-5.5084	193.163	-43.4914	-14.3009	146.276	-25.6884	-19.858	140.339	-28.3465	-43.5544	140.211	-24.8278	-63.5807	163.032	-9.8697	-19.6397	162.64	-4.66787	-41.1232	159.003	3.35727	-64.3266	179.791	-2.71533	-13.1938	179.549	3.46947	-33.3214	181.307	12.4196	-51.2151	197.548	1.14763	2.13586	204.484	5.78123	-6.25208	206.67	18.9977	-17.8847	172.464	-3.58868	28.1129	166.394	-3.49335	53.7445	146.744	-15.4824	37.2605	
356	2.96667	139.022	-36.7399	40.4947	146.477	-46.7127	8.30677	162.351	-42.9161	-7.83391	183.337	-38.7903	-19.2634	144.803	-9.04535	-19.6302	143.195	-9.53922	-37.8419	138.107	-5.29644	-58.6826	166.736	2.91176	-22.685	166.44	7.54996	-42.2273	167.17	18.3861	-63.4468	185.53	2.19788	-11.3938	191.165	9.21028	-31.318	194.535	16.9976	-44.9814	207.349	-2.16049	6.78341	213.896	3.12819	-7.21407	222.367	17.9653	-19.9301	179.852	1.79183	32.519	176.747	2.3346	56.1403	149.107	-5.40811	37.1468	
357	2.975	138.775	-20.9003	37.6252	138.679	-31.3061	10.1921	155.091	-27.3277	-14.086	179.179	-26.0211	-18.4632	145.885	5.71531	-17.5996	141.594	9.29825	-40.984	141.398	15.3881	-56.1875	169.525	10.2697	-18.7396	174.727	18.6867	-40.2826	180.043	30.8735	-58.6282	195.501	4.49407	-8.3744	198.08	11.867	-31.0097	203.423	20.8828	-47.9994	208.259	-4.48315	4.9935	217.473	-1.20155	-9.3059	227.206	9.5834	-18.1637	185.597	6.01234	30.0854	180.633	3.23723	58.1373	160.602	7.89932	39.0532	
